 http://www.shotpix.com/images/47692667377667290500.jpg

Info:
Format : MPEG-4
Format profile : Base Media / Version 2
Codec ID : mp42
File size : 742 MiB
Duration : 2h 1mn
Overall bit rate : 850 Kbps
Encoded date : UTC 2013-03-25 18:16:42
Tagged date : UTC 2013-03-25 18:34:49
Writing application : HandBrake 0.9.8 2012071700



Video
ID : 1
Format : AVC
Format/Info : Advanced Video Codec
Format profile : Main@L2.1
Format settings, CABAC : Yes
Format settings, ReFrames : 4 frames
Codec ID : avc1
Codec ID/Info : Advanced Video Coding
Duration : 2h 1mn
Bit rate mode : Variable
Bit rate : 686 Kbps
Width : 640 pixels
Height : 272 pixels
Display aspect ratio : 2.35:1
Frame rate mode : Constant
Frame rate : 25.000 fps
Color space : YUV
Chroma subsampling : 4:2:0
Bit depth : 8 bits
Scan type : Progressive
Bits/(Pixel*Frame) : 0.158
Stream size : 598 MiB (81%)
Writing library : x264 core 120
Encoded date : UTC 2013-03-25 18:16:42
Tagged date : UTC 2013-03-25 18:34:49
Material_Duration : 7317720
Material_StreamSize : 627457570
Material_FrameCount : 182943
Color primaries : BT.601-6 525, BT.1358 525, BT.1700 NTSC, SMPTE 170M
Transfer characteristics : BT.709-5, BT.1361
Matrix coefficients : BT.601-6 525, BT.1358 525, BT.1700 NTSC, SMPTE 170M



Audio
ID : 2
Format : AAC
Format/Info : Advanced Audio Codec
Format profile : LC
Codec ID : 40
Duration : 2h 1mn
Bit rate mode : Variable
Bit rate : 160 Kbps
Maximum bit rate : 208 Kbps
Channel(s) : 2 channels
Channel positions : Front: L R
Sampling rate : 48.0 KHz
Compression mode : Lossy
Stream size : 140 MiB (19%)
Encoded date : UTC 2013-03-25 18:16:42
Tagged date : UTC 2013-03-25 18:34:49
Material_Duration : 7317290
Material_StreamSize : 146332425



Screens: 
http://www.shotpix.com/images/42210453759424183726.png 
http://www.shotpix.com/images/24171438358517532252.png 
http://www.shotpix.com/images/98271336232583410044.png 
http://www.shotpix.com/images/31055730814421985052.png 
http://www.shotpix.com/images/39359510889951940377.png 
http://www.shotpix.com/images/91155528396083120766.png 
http://www.shotpix.com/images/86927667733812533426.png 
http://www.shotpix.com/images/24958370276226852320.png